<svg width="215" height="244" viewBox="0 0 215 244" fill="none" xmlns="http://www.w3.org/2000/svg">
<path d="M178.665 153.646L189.243 162.156L198.245 169.07L204.547 175.187C205.297 175.985 207.383 177.953 209.724 179.442L211.749 184.229V192.473L212.199 206.035L213.1 216.407L214 242.202M107.769 115.618C105.444 118.011 101.242 123.33 100.567 124.659L96.9661 128.116H94.2653L92.9149 129.18L91.3394 130.244L86.8381 129.712C85.9379 130.333 83.7322 131.574 82.1118 131.574L80.3112 131.84L79.636 131.574L78.7358 132.637L77.1603 133.169L75.8099 133.967L74.6846 135.563L76.7102 137.956C77.1603 139.197 77.9706 141.892 77.6104 142.743L78.0606 145.136L79.1859 149.923L81.4366 155.242L82.7869 157.369V161.624C80.9114 161.27 76.7102 162.156 76.7102 162.156L73.7843 164.549H70.8585L68.1577 163.22L69.9582 159.497L73.7843 150.987L75.1347 145.136L74.2345 141.413L71.5337 136.095C71.1586 133.435 68.4278 128.223 60.5055 128.648C57.5046 129.269 51.2328 131.893 50.1525 137.424C49.9274 138.842 49.3873 141.679 49.0272 141.679" stroke="black"/>
<path d="M104.168 83.1736C103.988 83.8119 105.143 91.2403 105.744 94.8747C105.744 94.8747 110.02 105.778 110.695 105.778C111.37 105.778 118.347 111.363 119.923 112.426C121.183 113.277 123.899 114.554 125.099 115.086L130.276 117.213C130.276 117.213 134.777 116.681 136.352 116.415L144.455 114.022L153.457 105.778C153.457 105.778 156.758 97.8886 157.509 94.8747L159.759 85.0352M104.168 83.1736C104.393 82.3758 103.043 82.3758 102.818 83.1736C102.638 83.8119 101.767 86.0989 100.792 86.0989C99.8169 86.0989 97.7763 85.8862 97.4162 85.0352C97.0411 84.4146 96.3359 83.0141 96.5159 82.3758C96.696 81.7376 96.5909 79.096 96.5159 77.8549V73.3341C95.6157 72.0044 93.9052 69.2387 94.2653 68.8132C94.7154 68.2813 94.2653 60.3033 95.3906 60.5692C97.0111 59.5055 98.3165 60.126 98.7666 60.5692L100.792 61.367V57.9099C99.7419 50.8183 98.7666 35.3055 98.7666 35.3055C98.6916 32.8234 99.6669 28.1253 99.6669 28.1253C99.5918 25.8205 100.117 21.4769 100.117 21.4769C101.017 20.1473 103.493 17.222 103.493 17.222C105.744 13.8535 110.92 7.91429 110.92 7.91429L113.846 4.45714L117.447 2.86154L123.074 1.7978C125.849 1.26593 131.176 1 131.176 1L141.304 1.7978C144.08 2.41832 150.081 4.45714 150.081 4.45714C151.657 6.05275 154.808 10.0418 154.808 10.0418C156.533 11.4601 159.759 15.3604 159.759 15.3604C161.41 18.0198 164.576 23.5512 164.036 24.4022C165.836 31.0506 164.711 44.0813 164.711 44.0813L164.036 55.5165L162.91 61.8989L166.736 60.5692C167.487 60.2146 169.96 60.7305 170.562 61.367C170.787 63.1399 171.238 66.8985 171.238 67.7495C171.238 68.8132 169.212 73.3341 169.212 73.3341L168.312 76.2593L167.637 81.0462C167.336 82.7304 166.061 86.0989 166.061 86.0989L162.91 88.7582L161.335 88.2264L159.759 85.0352M104.168 83.1736V81.0462C104.693 80.8689 105.744 79.1846 105.744 79.1846L105.293 76.7912L104.168 74.6637V68.8132L105.068 62.4308H103.493C103.943 59.5055 104.168 52.5912 104.168 52.5912L102.818 50.7297C102.593 48.6908 102.278 44.6664 102.818 44.8791C103.358 45.0919 103.943 46.3861 104.168 47.0066C104.693 46.5634 105.744 45.5174 105.744 44.8791C105.744 44.0813 107.319 41.9538 107.319 41.9538C107.244 40.0923 106.419 35.8374 106.419 35.8374C106.419 34.7736 108.219 33.444 108.219 33.444C109.045 33.444 110.695 35.3055 110.695 35.3055C110.845 35.0396 112.271 34.5077 112.271 34.5077C113.021 35.0396 114.521 36.6352 114.521 36.6352H115.646V34.5077C116.097 35.2169 117.672 36.6352 117.672 36.6352C117.822 36.6352 119.022 36.6352 119.022 36.6352C119.323 35.6601 119.923 32.6462 119.923 32.6462L122.398 34.5077L123.074 32.6462L123.749 34.2418M159.759 85.0352V71.7385L160.209 61.367V51.5275L159.309 45.411L157.509 40.0923V34.5077L155.483 33.444L152.782 32.6462L149.631 31.5824L147.381 30.5187C147.381 30.5187 146.63 34.5077 146.03 35.8374C146.03 35.8374 143.104 37.167 143.78 37.167C144.32 37.167 145.505 34.1531 146.03 32.6462L142.879 35.8374L145.13 29.9868C145.13 29.9868 143.405 31.7597 142.879 32.6462C142.879 32.6462 139.879 35.1282 138.828 35.3055L139.728 30.5187L137.478 35.3055C137.478 35.3055 134.777 36.0147 133.652 35.8374V29.9868L132.301 33.444C132.076 33.0007 131.536 32.0079 131.176 31.5824C130.816 31.1569 131.026 34.2418 131.176 35.8374L130.501 33.444L128.925 35.8374L127.35 34.2418L126.45 35.3055L123.749 34.2418M124.424 35.8374L123.749 34.2418M127.35 54.7187C128.325 57.4667 129.691 64.1327 127.35 68.8132C125.009 73.4936 124.874 73.7773 125.099 73.3341L124.424 76.2593L125.099 79.1846L127.125 79.7165L128.925 77.8549L130.726 78.6528H132.301L134.552 77.8549L136.803 78.6528L137.478 79.7165H139.728C140.179 78.2095 141.529 75.9934 140.629 74.6637C139.728 73.3341 138.153 71.7385 137.478 71.2066C136.938 70.7811 136.352 68.7245 136.127 67.7495C135.902 63.6718 135.722 55.3569 136.803 54.7187M119.923 93.0132C120.523 92.6586 121.993 91.7899 123.074 91.1517C124.154 90.5134 126.825 88.0491 128.025 86.8967L129.375 86.6308L131.176 88.2264L134.552 86.8967L137.478 88.2264L139.728 91.1517L141.979 93.0132C140.629 94.8747 136.578 98.4382 131.176 97.8C125.774 97.1618 121.423 94.3429 119.923 93.0132ZM119.923 93.0132C121.798 92.3927 126.225 91.1517 128.925 91.1517C131.626 91.1517 134.402 91.1517 135.452 91.1517M108.219 54.7187C108.519 52.8571 110.695 48.6022 110.695 48.6022C111.595 47.0952 114.521 44.0813 114.521 44.0813C118.497 45.6769 126.45 49.4 126.45 49.4L127.35 50.7297H125.774V51.5275C123.749 50.3751 119.022 49.4 119.022 49.4C116.922 49.4 112.271 50.7297 112.271 50.7297L108.219 54.7187ZM137.478 51.5275C138.378 49.5773 140.809 45.7301 143.33 45.9429C144.905 45.411 150.757 44.8791 150.757 44.8791C152.932 46.4747 157.104 50.251 156.383 52.5912L155.483 53.389C154.283 51.6161 151.837 48.3363 151.657 49.4C149.931 49.4886 146.39 49.6127 146.03 49.4C145.58 49.1341 141.304 50.1978 141.304 50.1978L137.478 51.5275ZM110.695 61.367C111.52 59.6828 114.161 56.3675 118.122 56.5802C122.083 56.793 123.974 58.2645 124.424 58.9736C123.674 60.0374 121.363 62.218 118.122 62.4308C114.881 62.6435 111.82 61.8103 110.695 61.367ZM139.728 58.9736C141.529 57.7326 145.388 56.2438 147.381 56.5802C150.532 57.1121 152.782 61.367 152.782 61.367C151.582 61.8989 148.641 62.9095 146.48 62.6967C144.32 62.484 141.079 60.126 139.728 58.9736Z" stroke="black"/>
<path d="M135.002 91.4176C136.878 91.5062 140.899 91.9495 141.979 93.0132M144.23 57.9099C144.23 58.7077 144.59 60.3565 146.03 60.5692C147.081 60.8352 149.316 60.6756 149.856 57.9099M114.746 57.9099C115.046 59.0623 116.142 61.2075 118.122 60.5692C120.103 59.931 120.898 57.9985 121.048 57.1121M107.544 99.1297V127.319L115.421 157.103C118.347 159.408 126.495 163.964 135.677 163.752C144.86 163.539 148.806 162.954 149.631 162.688C151.582 157.547 155.573 146.413 155.933 143.009L154.133 136.095C154.133 130.978 154.133 126.816 154.133 122.798M154.133 105.246C154.133 112.177 154.133 117.355 154.133 122.798M154.133 122.798C155.858 125.634 159.309 131.52 159.309 132.371C159.309 133.435 163.585 141.945 164.711 142.477C165.611 142.902 169.887 146.909 171.913 148.859C174.163 150.189 178.665 153.008 178.665 153.646" stroke="black"/>
<path d="M49.2522 141.413C47.0766 143.097 42.6353 146.732 42.2752 147.796M42.2752 148.327L37.5489 153.912L34.623 157.635L30.5718 160.029L28.7713 162.422L26.2956 163.22L22.9196 163.752C19.4686 166.677 12.9267 173.432 14.3671 177.048C14.3671 178.644 14.5922 182.314 15.4925 184.229V192.473C16.0176 194.423 18.0582 198.855 22.0193 200.982L24.0449 205.769C25.1703 208.96 28.2311 215.343 31.4721 215.343L33.7227 216.407L36.8737 215.343L40.4747 215.609L42.5003 215.343L45.2011 212.418L46.1218 211.62M91.5645 196.727L89.764 197.525C83.4622 201.142 74.8347 201.16 71.3086 200.717L67.9327 203.376L61.6308 205.769L55.1039 206.567L51.728 208.96L48.577 209.492L46.1218 211.62M91.5645 196.727L94.4904 199.919H95.8407H97.1911L98.0914 202.046L99.8919 202.578L101.467 203.376M91.5645 196.727L89.764 194.334L85.4877 192.473L83.6872 188.484L83.012 185.558L82.1118 180.506L83.012 176.251L84.5875 171.73L85.7128 168.804L88.4136 166.943L89.5389 165.081L90.2141 163.752H92.9149M101.467 203.376L102.143 206.035C102.593 206.922 103.808 208.535 105.068 207.897M101.467 203.376C100.717 202.223 99.1717 199.919 98.9917 199.919C98.894 199.919 98.4391 198.824 97.9354 197.525M105.293 207.897C105.383 207.861 105.485 207.818 105.596 207.767M108.895 195.132C108.862 195.17 108.827 195.261 108.79 195.398M108.79 195.398C108.414 196.787 107.817 202.888 107.544 206.035C107.388 206.773 106.317 207.431 105.596 207.767M108.79 195.398C109.2 192.561 109.525 186.09 107.544 182.899C109.345 186.179 112.811 193.855 112.271 198.323L110.695 203.11L108.895 207.897L107.882 210.556M128.035 198.323C128.219 202.109 127.901 204.782 127.575 206.035C127.682 207.051 125.604 211.401 123.272 215.875M128.035 198.323C127.881 195.146 127.375 191.185 126.225 186.622C126.982 189.991 128.404 197.047 128.035 198.323ZM128.035 198.323H128.7L132.076 196.196H135.452C136.138 197.276 137.346 199.92 137.883 203.376M138.153 206.833C138.528 208.695 139.683 212.311 141.304 211.886C143.33 211.354 143.78 208.429 143.78 205.237V199.121L143.655 198.855M138.153 206.833C138.153 205.617 138.051 204.457 137.883 203.376M138.153 206.833C136.803 209.581 133.787 215.29 132.526 216.141C132.076 216.761 130.501 218.64 127.8 221.193C126.815 221.016 124.802 220.449 124.634 219.598M128.7 183.697C129.232 185.186 132.973 186.799 134.777 187.42C140.17 185.292 142.276 189.37 142.654 191.675V195.533M128.7 183.697L127.125 182.367H125.549H124.874L123.074 180.506L121.273 178.91L117.447 178.112L117.222 178.068M128.7 183.697H132.526L134.327 182.367L136.127 182.899C141.789 182.187 146.355 178.183 149.342 174.389M109.795 176.251L113.396 177.314L117.222 178.068M109.795 176.251C107.019 173.946 100.072 170.028 94.4904 172.793C92.0897 174.212 87.6484 178.006 89.0888 181.835V184.76L89.5389 187.154C90.2505 187.854 91.5119 189.101 92.9149 190.498M109.795 176.251L107.544 172.262C107.244 172.084 106.149 171.145 104.168 168.804L103.268 167.741L101.467 166.943L96.741 165.081L92.9149 163.752M92.9149 190.498C94.1746 191.752 95.5485 193.126 96.741 194.334C97.0501 195.186 97.5101 196.429 97.9354 197.525M92.9149 190.498C94.3403 190.358 98.5415 187.42 98.5415 187.42L99.8919 186.622C100.417 186.799 101.602 188.59 102.143 194.334C101.542 194.068 100.162 193.696 99.4418 194.334C98.8877 195.265 97.8106 197.206 97.9354 197.525M92.9149 163.752C92.7649 163.486 92.3747 162.901 92.0146 162.688C91.5645 162.422 88.4136 161.624 88.1885 161.624C88.0085 161.624 84.6625 161.624 83.012 161.624M74.6846 135.563L73.3342 134.765L71.0836 134.499M68.3828 163.22C65.757 162.777 59.8753 162.05 57.3546 162.688L41.8251 164.018C37.0987 164.284 27.556 165.294 27.1958 167.209C26.7457 167.386 24.4951 169.124 19.0935 174.655M115.646 157.103L115.421 158.699L117.447 164.815L118.122 168.538V171.73L117.897 173.857L119.473 175.453L117.222 178.068M115.646 158.699L118.347 164.018C121.273 167.652 128.565 174.708 134.327 173.857C136.578 173.325 147.831 166.145 149.856 162.688L151.432 160.029L152.332 157.901V155.774L153.232 155.508V152.582L156.158 143.275C157.359 146.555 158.319 156.359 152.557 169.336C151.912 170.686 150.82 172.512 149.342 174.389M46.1218 211.62C46.34 214.279 47.3167 219.97 49.4773 221.459L50.6026 227.842L51.728 234.756V242.468M105.596 220.13C104.898 219.354 104.938 217.406 105.068 216.407L106.869 213.215L107.882 210.556M105.596 220.13C105.702 220.248 105.826 220.339 105.969 220.396C106.344 221.016 107.634 221.619 109.795 219.066L111.834 215.343M105.596 220.13L102.143 231.033L98.3165 242.468M105.596 207.767C106.425 208.519 108.044 210.131 107.882 210.556M111.834 215.343L112.271 214.545L116.997 206.035L118.797 202.046C119.548 200.628 120.598 196.674 118.797 192.207L117.447 186.622C118.872 189.459 121.633 195.664 121.273 197.791C121.138 200.511 119.67 208.155 115.018 218.534M111.834 215.343C112.986 215.609 115.235 216.619 115.018 218.534M115.018 218.534C114.515 219.655 113.975 220.809 113.396 221.991C112.946 223.232 112.406 225.927 113.846 226.778C114.372 227.244 115.844 227.465 117.897 225.219M117.897 225.219C118.186 224.903 118.486 224.539 118.797 224.119C120.007 221.974 121.698 218.897 123.272 215.875M117.897 225.219C118.872 227.778 121.003 233.001 121.723 233.426C122.624 235.199 124.964 238.266 127.125 236.352M117.897 225.219V234.756V237.415C117.222 237.681 115.646 238.479 114.746 239.543C114.296 240.252 113.486 241.83 113.846 242.468M127.125 236.352C127.875 235.731 129.195 233.214 128.475 228.108C127.426 225.867 125.793 222.305 124.634 219.598M127.125 236.352C127.323 236.994 127.611 238.129 127.683 239.011M123.272 215.875C123.23 215.956 123.327 216.309 123.524 216.855M149.342 174.389L148.956 176.517L147.606 178.91L147.381 182.367V185.292M148.281 242.468V233.426M147.381 186.888V186.09V185.292M147.381 186.888L142.654 195.533M147.381 186.888V193.536M142.654 195.533V196.727L143.655 198.855M147.381 193.536V199.121L147.592 203.11M147.381 193.536L143.655 198.855M137.883 203.376C136.623 205.858 133.517 211.46 131.176 214.013C130.651 214.988 129.195 217.151 127.575 218.002C126.525 218.212 124.244 218.277 123.524 216.855M123.524 216.855C123.766 217.527 124.16 218.491 124.634 219.598M128.475 242.468C128.655 241.617 127.95 240.518 127.575 240.075C127.698 239.857 127.719 239.468 127.683 239.011M119.923 233.958C120.298 235.465 121.588 238.586 123.749 239.011C123.972 239.099 124.434 239.205 125.099 239.237M127.683 239.011C126.642 239.224 125.768 239.268 125.099 239.237M125.099 239.237V240.873L125.324 242.202M120.598 236.352C119.998 237.327 118.842 239.437 119.022 240.075C119.473 240.695 120.418 241.83 120.598 241.404C120.823 241.138 121.318 240.926 121.498 242.202M178.44 153.646C179.04 155.064 180.06 158.858 179.34 162.688C178.29 165.613 175.424 172.474 172.363 176.517C170.562 178.644 165.926 183.271 161.785 184.76C161.717 184.744 161.641 184.728 161.56 184.711M147.381 185.292C147.381 184.654 152.182 184.672 154.583 184.76C157.458 184.161 160.294 184.453 161.56 184.711M161.56 184.711L158.409 190.079M158.409 190.079C157.734 188.749 155.663 186.569 152.782 188.484M158.409 190.079C158.409 190.788 158.274 192.473 157.734 193.536C157.194 194.6 155.708 195.575 155.033 195.93L154.133 195.398M152.782 188.749C151.957 189.813 150.892 192.526 153.232 194.866L154.133 195.398M154.133 195.398L151.657 199.121L149.856 202.578L148.956 203.376L147.592 203.11M147.592 203.11L147.606 203.376L148.281 208.429V218.534V227.576M191.493 164.018L192.844 167.209V174.655L188.793 194.068H186.992V196.727C187.742 196.727 189.288 197.951 189.468 202.844M189.468 202.844L189.648 204.971M189.468 202.844L188.793 203.642L188.117 204.971L187.217 206.301H186.542L186.317 205.769L187.442 204.44L187.892 202.844L187.442 202.312L186.992 201.248L186.317 202.046L185.417 203.642L184.742 204.971L184.066 205.503L184.516 203.642L184.742 202.844L185.417 201.78L185.867 200.717V199.653L185.417 198.855L184.516 199.653L182.716 203.908L182.941 207.099H183.841L184.967 207.897L186.092 208.695L187.442 209.226L189.648 204.971M204.997 175.719V181.037L202.972 190.079L199.146 203.376L194.644 218.268L192.046 223.699M192.046 223.699L191.719 224.385L190.593 216.141L190.346 213.215M192.046 223.699L192.169 234.756V242.468M148.281 227.576L153.232 219.864L153.683 219.226M148.281 227.576V231.565M159.984 210.29L160.885 211.354L161.11 213.747L161.335 216.992L162.685 217.47L163.135 218.268L164.877 218.534L165.386 220.13L165.611 222.523L164.036 222.789L163.81 224.119H163.135V223.055L161.785 222.789L161.335 220.927L160.66 220.51H159.759V219.864L159.309 219.598V216.673L160.209 216.407V215.875H160.66V214.279H159.309V215.343L158.409 215.077V214.545L157.284 214.124M159.984 210.29C159.175 211.443 158.163 212.878 157.284 214.124M159.984 210.29C161.774 207.741 163.993 204.553 165.917 201.78M180.915 203.376L182.266 200.451L184.066 195.93L185.417 191.143L186.767 188.949M180.915 203.376L180.465 205.769M180.915 203.376L179.565 205.503L178.44 207.099H177.539V205.503L178.44 205.237L178.89 204.44L177.764 204.174L177.99 202.578L177.314 200.982L176.639 201.248C176.489 201.692 176.144 202.578 175.964 202.578C175.784 202.578 175.439 202.755 175.289 202.844V207.099L174.389 207.365L173.938 206.301L173.713 206.567L172.813 206.833L172.588 208.695L173.038 211.886L173.713 212.418V214.811L173.038 216.141L171.913 217.204L171.463 217.736H171.013V216.992L171.238 216.141L171.463 215.609V214.545H172.813L173.038 213.747L172.588 212.418H171.913V213.747L171.013 214.124V211.886L170.337 210.822H169.887L169.437 212.684H169.212L169.313 214.124L169.212 217.47L170.562 218.8V219.598L169.887 219.974L169.212 220.927V222.523L170.562 220.396L171.463 219.066L172.813 218.002L173.713 216.407L174.614 215.077L175.064 213.215L174.614 212.684V211.62L175.289 210.024L175.514 208.695L176.189 207.365V207.897L177.089 208.695L176.639 209.492L175.964 210.29L175.739 211.354H176.639L177.314 210.024L177.99 209.226L178.44 208.429L180.465 205.769M180.465 205.769L177.089 211.088L173.263 217.736L170.337 221.193L168.312 224.917L165.836 228.64L163.135 231.831L159.084 236.618M159.084 236.618C159.534 237.149 160.434 238.373 160.434 239.011C160.509 239.72 160.299 241.351 158.859 242.202M159.084 236.618C158.746 236.255 158.187 235.806 157.509 235.504M154.358 242.468C154.211 242.295 154.075 242.125 153.95 241.959M153.95 241.959C152.994 240.697 152.623 239.669 152.557 239.277C152.352 238.671 152.673 237.863 153.112 237.149M153.95 241.959L153.232 242.468M190.346 213.215L189.648 204.971M190.346 213.215C188.64 216.475 186.277 220.903 183.841 225.317M173.263 242.202C173.791 241.975 174.905 240.472 176.346 238.213M186.542 242.468L185.867 241.138L184.742 240.075L184.967 238.745L186.317 239.543V238.745H186.992L187.442 239.809L188.204 240.034M188.204 242.468L188.281 241.138M187.442 239.543L187.667 239.277H189.468L190.368 238.213L190.143 235.288L189.468 235.022V233.958H187.217V231.299H189.468V233.16H190.368L190.593 231.565H191.268L191.369 233.16L191.719 233.323V234.49L191.268 234.756L191.369 239.543H191.719V240.607L191.268 240.873L191.369 242.468M188.204 240.034L188.343 240.075L188.281 241.138M188.204 240.034H189.018V240.873L188.281 241.138M189.018 242.468L189.243 241.936L189.918 241.404V239.809H190.818V241.138L191.268 241.404M176.346 238.213L176.414 239.277H176.864V240.341L177.314 241.404L176.346 242.468M176.346 238.213C176.723 237.623 177.122 236.981 177.539 236.297M179.565 242.468V241.936L179.115 241.67V239.277L179.79 238.479L180.69 237.415L181.366 238.479C181.441 238.834 181.636 239.543 181.816 239.543C181.996 239.543 182.341 240.252 182.491 240.607L182.941 240.341V239.011L182.041 238.479V237.149H183.166L182.941 235.022L182.716 233.958L183.391 233.426L183.616 232.895H184.516L185.642 233.426L186.092 232.629V231.565L186.767 231.033V227.044L186.092 226.778L185.867 226.246H185.192L184.967 225.182L183.841 225.317M183.841 225.317C181.659 229.27 179.418 233.213 177.539 236.297M183.841 225.317V231.299C183.578 231.299 183.166 231.299 183.166 231.299V232.629H181.816V230.235H181.366M180.24 231.831L180.915 233.426V235.288L179.34 237.415L178.89 238.479H177.99L177.539 236.297M186.317 223.587V223.699M186.317 223.699V225.448H187.217V223.321H186.317V223.699ZM167.411 62.9627C164.711 63.1754 162.685 66.5971 162.01 68.2813V70.9407L163.36 73.3341L164.486 74.6638L164.036 77.3231L162.91 77.855L162.01 78.9187L162.235 80.2484L163.36 79.4506L164.486 80.5143L165.161 82.3758L165.836 80.5143L167.411 77.855L166.736 76.2594L167.411 74.1319L168.087 72.8022C168.987 70.6747 169.512 68.5473 169.662 67.7495C170.382 64.1328 168.462 63.0513 167.411 62.9627ZM167.411 62.9627L163.36 60.3033L159.984 63.7605M162.235 88.4923V85.3011H162.91V83.4396H163.36L163.585 85.0352V85.833V87.9605M134.552 77.589L134.102 76.5253L135.452 75.1956H136.803L138.153 76.5253L138.378 77.589L137.253 77.855L135.902 78.1209M100.792 60.3033L102.143 62.9627L100.792 65.3561L101.467 67.7495L102.143 68.2813M102.143 68.2813L102.593 71.4725L100.792 72.8022L100.117 74.6638L102.143 76.7912V78.1209L104.168 81.0462M102.143 68.2813L101.467 69.0791M95.3906 61.3671C95.7207 61.656 96.1046 62.0047 96.5159 62.3943M101.467 69.0791C100.267 70.5861 97.9564 74.0255 98.3165 75.7275C98.5415 76.8799 99.3518 79.0783 100.792 78.6528M101.467 69.0791C101.467 67.4764 98.629 64.3956 96.5159 62.3943M96.5159 62.3943C96.2159 64.5339 95.7957 69.0791 96.5159 70.1429M103.943 119.873L102.818 124.925L102.143 132.106L105.519 144.604L108.669 156.571L110.245 162.688L112.045 167.741L110.245 167.209L107.769 162.688L104.168 149.125L101.467 139.02L100.792 132.106L101.242 123.862M100.792 124.659L98.7666 131.84V139.552L100.117 147.264L102.143 155.774L104.168 164.018L101.242 161.624L96.0658 156.04V153.912L94.9405 150.189L94.4904 136.626L96.741 128.117M95.6157 128.117C93.6651 129.978 90.0341 136.733 91.1144 148.859L88.4136 144.604C88.4886 141.059 89.1338 133.222 91.1144 130.244M153.007 240.873V242.468M151.657 242.468V241.138L150.307 240.873L150.757 240.075L151.432 239.277V237.947H149.631L149.856 236.618L150.307 236.287H150.532L151.657 237.149L152.107 236.086L152.782 235.82L153.112 237.149M153.112 237.149C153.443 236.61 153.842 236.125 154.133 235.82C154.207 235.764 154.283 235.711 154.358 235.663M154.358 235.663L154.133 232.895L153.232 232.629V231.565L152.107 231.033L151.882 231.831L150.757 231.299L150.081 229.437V227.842L150.532 225.714L150.982 224.651H151.657V225.98L153.007 225.714V230.501L154.133 230.767L154.358 231.831L154.583 232.363L155.483 231.831L155.708 230.501H156.608L157.058 231.565L157.734 232.895L157.509 235.504M154.358 235.663C155.458 234.958 156.592 235.097 157.509 235.504M160.209 235.022V233.692L159.759 233.16L158.859 232.629L158.409 231.565V228.108H158.859L159.084 226.778L160.209 227.044C160.134 227.487 160.029 228.374 160.209 228.374C160.389 228.374 161.035 229.083 161.335 229.437V231.033L160.209 232.097L160.66 233.426L161.335 233.692M155.258 216.992V218.534L154.133 219.598L154.583 220.13L156.833 220.51L156.608 224.651L156.158 225.448L155.483 226.246C155.033 226.188 154.088 226.052 153.908 225.98C153.728 225.908 153.082 224.709 152.782 224.119H153.457L154.133 223.321C154.133 222.223 154.133 221.608 154.133 220.51L153.908 220.13L153.683 219.226M155.258 216.992L153.683 219.226M155.258 216.992C155.258 216.992 156.163 215.711 157.284 214.124M160.885 209.226L161.785 210.024L162.46 210.822L162.685 213.215L162.91 216.407L163.81 216.673H165.161L165.386 217.736L165.611 218.002L165.836 216.938L166.061 216.141H166.736L167.186 216.673L167.411 219.226V220.927L167.186 222.257H167.862V223.321L167.186 223.853L167.411 224.651L167.027 225.448L166.061 224.917V223.587H165.611V224.385C165.461 224.562 165.116 224.97 164.936 225.182C164.756 225.395 164.411 225.448 164.261 225.448L163.585 226.246L163.135 228.374L161.56 228.64L161.335 226.246V223.853L160.885 222.789L159.759 222.523V221.193H158.634L158.409 222.789L158.184 223.055C158.109 222.434 157.869 221.193 157.509 221.193C157.149 221.193 157.209 220.381 157.284 219.974L156.684 219.864L156.383 218.534L157.284 217.736L157.509 216.141H157.058L157.284 214.124M148.281 231.565V232.895V233.426M148.281 231.565L148.731 231.033H149.406L149.631 232.097L149.406 232.895L148.281 233.426M165.917 201.78L166.061 202.578L166.736 202.844L166.961 201.78H167.862V203.11L167.186 203.908L167.411 205.237L168.087 206.567H169.887L170.112 205.237L170.562 203.908V200.982H171.463V199.653H170.112H168.987L168.762 199.387L169.437 198.057L170.112 197.525L170.218 195.571M165.917 201.78C168.011 198.763 169.756 196.24 170.218 195.571M170.218 195.571C170.296 195.458 170.337 195.398 170.337 195.398L173.713 189.547L177.764 182.101L181.14 175.187L184.742 167.741C185.942 166.677 188.658 164.922 189.918 166.411C191.043 167.475 192.979 170.826 191.719 175.719C191.252 177.594 190.425 180.781 189.693 183.279M186.767 188.949L187.217 188.218L188.568 186.622C188.84 186.059 189.249 184.796 189.693 183.279M186.767 188.949V187.686L186.092 187.42C185.942 187.243 185.642 186.835 185.642 186.622C185.642 186.409 185.492 185.824 185.417 185.558L187.667 184.76L187.217 181.835H186.317L186.542 182.899L186.767 183.697H185.417L185.192 181.303L184.066 181.835V182.899L182.266 182.633V179.974L180.915 178.644H180.015L179.79 179.974L180.015 182.101L179.34 183.963L180.015 185.558L181.366 185.292L182.266 184.711L183.841 184.76L184.291 187.42L183.166 188.749L181.816 189.813L181.366 190.345L180.69 190.079L180.24 189.281L179.115 188.749L178.665 186.888V183.963H177.764L177.089 188.218L176.414 188.484V189.281L177.089 190.079L177.314 189.813L178.215 190.345V191.409L179.115 192.473L179.34 190.079L180.465 191.143L181.366 191.941V193.27L181.816 195.571L182.941 196.196L182.716 193.802V190.611L184.066 189.547L184.967 187.952L184.742 189.547L183.841 191.409L184.291 193.802L184.742 191.409L185.642 189.547L186.767 188.949ZM189.243 184.495L187.667 181.835L187.217 179.442L187.667 177.314L188.343 175.719L188.793 177.314L189.243 178.378V181.303L189.693 183.279M174.163 223.055L173.938 225.448L172.588 226.778L171.463 227.576V230.235L171.913 230.767L173.488 231.299L174.614 230.501L175.064 229.703L175.289 228.64L175.064 228.374L174.389 228.906L174.163 229.437H173.488L173.263 228.374L173.713 227.576L174.389 226.512L175.289 225.448L175.964 225.98L176.639 226.778L176.864 228.108V229.703V230.501L175.964 231.299C175.214 232.629 173.128 234.597 170.787 231.831H169.662V227.842L171.463 225.98V225.182H172.138L174.163 223.055ZM175.514 219.332V220.927L176.639 223.055L177.99 223.699L179.565 225.182L180.24 224.119L180.465 222.523L178.89 222.257L178.665 221.193L177.99 220.927C177.764 220.662 177.269 220.077 177.089 219.864C176.909 219.651 175.964 219.421 175.514 219.332ZM177.539 216.673L179.34 214.545C179.865 214.9 181.14 215.502 182.041 215.077C182.116 214.634 181.996 213.428 180.915 212.152V208.695C182.116 210.29 184.381 213.907 183.841 215.609C183.991 216.318 182.941 217.524 177.539 216.673ZM188.568 219.066H189.468L189.918 220.927L189.693 222.257L190.368 222.523V223.699L190.346 225.317L189.468 225.714V226.512H188.568V224.651L187.667 224.119V220.927L188.343 220.662L188.568 220.13V219.066ZM128.7 77.855H127.125L126.225 75.9934L127.125 74.9297L128.925 75.7275L129.601 76.7912L128.7 77.855ZM164.486 205.237V206.833L163.468 208.429L163.81 208.96L164.261 209.226V211.354H164.936C164.936 211.531 164.981 211.886 165.161 211.886C165.341 211.886 165.986 211.886 166.286 211.886L165.836 211.088L166.286 210.556H166.961L166.736 205.769H165.611V205.237H164.486ZM171.913 193.27L172.138 197.791L171.013 198.323L170.562 198.855L171.688 199.387L171.913 200.185L172.363 200.982L173.263 201.514L173.938 200.982V199.387V198.057L174.163 197.525V197.259L173.488 196.993V194.866L172.588 194.6V193.536L171.913 193.27ZM175.289 187.952L174.839 189.547L174.389 191.941V194.334L175.289 196.462L176.189 195.93L176.639 195.398L177.539 196.993L179.34 198.057L179.115 201.248L180.015 201.78L180.24 202.578L180.915 202.312V200.717L180.69 198.855L181.14 198.323L181.366 196.727L180.915 195.93L180.69 195.398H179.79L179.34 196.727L177.539 194.866L176.639 193.802V193.27L177.764 193.802L179.34 194.866V193.802L177.314 191.941L176.414 191.143L175.514 190.345L175.289 187.952ZM182.716 175.187L183.616 172.793L184.291 172.527L184.742 173.325L184.967 176.251L184.066 177.314L184.291 178.644L184.967 178.91L184.742 179.708L183.841 179.176L183.166 177.314H182.491L182.716 175.187Z" stroke="black"/>
<path d="M186.317 166.677V170.666H185.417V172.527L186.992 173.325L188.793 173.591L188.568 171.464V169.868L189.243 169.602L189.693 171.464L190.368 171.73C190.518 171.464 190.818 170.825 190.818 170.4C190.818 169.868 190.818 169.336 190.818 169.07C190.818 168.858 190.518 168.095 190.368 167.741L190.143 166.411M189.018 165.879V168.538L188.568 169.07L187.892 168.538L187.667 167.209V165.879M170.787 147.796C172.588 150.721 176.054 157.316 175.514 160.295M175.739 160.295L174.839 164.284L174.389 165.879H173.488C173.863 161.89 173.083 151.997 166.961 144.338M164.936 142.743C168.387 148.239 174.118 162.209 169.437 174.123L164.711 178.91L161.785 179.708V177.846L164.711 170.932L166.286 164.284L166.511 155.242L165.386 149.391L162.01 141.147C162.01 141.147 161.643 138.978 161.38 137.424M161.335 137.158C161.349 137.244 161.364 137.333 161.38 137.424M161.335 137.158L161.38 137.424M161.335 137.158V140.084L163.585 148.062L163.81 156.837L163.135 162.422L162.01 167.209C161.485 168.627 160.389 171.57 160.209 171.996C160.029 172.421 158.634 176.428 157.959 178.378L156.608 179.974H154.133L154.808 177.846L157.959 171.996L160.885 164.815L162.46 156.837L162.01 150.987L160.885 144.073L159.984 137.69L157.959 129.446M147.606 190.345L148.731 190.877C148.806 191.054 148.956 191.462 148.956 191.675C148.956 191.887 149.556 191.941 149.856 191.941L150.532 193.536L150.307 196.196H149.406L148.056 195.93V199.121C147.756 199.387 147.336 199.919 148.056 199.919C148.776 199.919 149.256 198.678 149.406 198.057L150.757 196.993L150.982 198.057L151.882 198.323L152.332 198.057V196.727V193.802M152.782 188.749L151.657 189.015L150.757 190.877L149.856 190.508L148.956 189.281C148.731 189.37 148.281 189.494 148.281 189.281C148.281 189.069 148.131 188.661 148.056 188.484L147.606 188.218M147.381 186.622L148.506 186.888C148.656 186.533 149.001 185.824 149.181 185.824C149.361 185.824 149.256 185.115 149.181 184.76M152.107 185.026V185.824L152.782 186.09L153.232 187.42H155.258L155.483 186.356L156.158 186.622L155.933 185.026M157.509 185.026V186.09L157.959 186.356L158.859 186.09V187.686L158.409 189.813M160.66 186.356L159.534 186.09L159.309 185.292H158.634C158.634 185.292 158.771 184.968 158.859 184.76M146.03 189.281L146.255 191.941L145.805 194.6L144.23 193.004L145.13 195.132L144.905 196.196H143.78C143.78 196.196 143.368 195.547 143.104 195.132M137.253 204.971L137.478 207.099H136.127L136.578 208.96L135.002 208.695L135.452 210.822L134.102 210.556L134.552 212.684L132.977 212.152L133.202 214.545L131.626 213.747L131.851 216.141L130.501 215.609L130.726 217.47L129.601 216.673L129.375 218.8L128.25 218.002L127.8 220.396L126.45 218.268L125.549 219.864L124.649 218.002M62.7562 205.503L62.5311 207.365L61.8559 208.96L61.6308 212.684L58.2548 216.141L55.7791 216.384M47.6768 219.066L49.2522 220.13H51.2778L55.5541 218.002V216.407L55.7791 216.384M52.8533 208.163L53.9786 211.886C54.5788 213.385 55.7791 216.384 55.7791 216.384M95.8407 235.022C95.5407 235.111 94.8955 235.235 94.7154 235.022C94.4904 234.756 93.5901 235.022 93.14 234.224C92.9599 234.011 93.6651 233.958 94.0402 233.958L94.2653 233.692L95.1656 233.16L94.7154 231.565H94.0402L92.9149 231.299L92.4648 230.767H91.7896V232.363L91.1144 233.958C91.0394 234.667 90.8893 236.139 90.8893 236.352C90.8893 236.618 88.8637 236.884 88.6387 236.884C88.5376 236.884 88.054 236.828 87.5297 236.763M95.8407 235.022V235.554L96.5159 236.086V237.947L95.8407 237.415H95.6157L94.9405 238.479L95.1656 239.543C95.4656 239.72 96.1108 240.022 96.2909 239.809C96.4709 239.596 97.5662 238.834 98.0914 238.479L97.6413 236.884L97.1911 234.756L96.0658 234.49M95.8407 235.022L96.0658 234.49M88.6387 232.097C88.6387 232.512 88.6387 233.16 88.6387 233.16V234.224L87.0632 234.756L87.5297 236.763M87.5297 236.763C87.1195 236.712 86.6844 236.656 86.388 236.618L86.1629 235.022L85.4877 232.097C85.6888 231.235 85.8206 230.649 86.066 229.969M89.5389 232.097L89.9891 231.299L90.8893 231.565L91.1144 232.363L91.5645 229.437L91.3569 227.501M91.3569 227.501L92.4648 228.374L92.9149 229.969H93.8152L94.7154 229.703L95.6157 231.033L96.2909 232.097V233.958L96.0658 234.49M91.3569 227.501L91.1144 227.31C91.3394 227.221 91.6095 226.991 90.8893 226.778C90.1691 226.565 89.689 226.689 89.5389 226.778L89.9891 229.969V230.767H89.0888L88.6387 229.171L87.2883 228.374L86.388 229.171C86.2597 229.462 86.1553 229.722 86.066 229.969M92.0146 242.468L91.3569 241.404V239.809L92.4648 241.138L92.9149 242.468M51.728 241.936L52.1781 239.809L52.6282 239.011V237.415V233.16L53.0783 226.778C53.6035 226.689 54.6538 226.459 54.6538 226.246C54.6538 225.98 54.4287 223.055 54.8789 222.523C55.239 222.098 56.0792 221.814 56.4543 221.725L56.9045 220.662L57.3546 219.598L56.2293 219.066L55.5541 220.13L54.4287 220.662L53.5285 224.119V225.98L52.6282 224.916L51.953 222.523L51.0528 221.459V224.651L51.953 225.98L51.728 227.842L51.0528 228.374L51.728 229.437L51.5029 233.16M65.2319 204.705C65.2319 205.237 65.2319 206.354 65.2319 206.567C65.2319 206.833 64.7817 207.365 64.3316 208.163C63.9715 208.801 64.1816 209.67 64.3316 210.024L65.0068 211.354C64.6317 211.886 63.7464 213.003 63.2063 213.215L62.9812 211.088L63.4314 210.024L63.8815 207.099V205.237M67.4825 203.642V205.503L67.9327 206.035L68.6079 205.769C68.6079 205.592 68.6079 205.184 68.6079 204.971C68.6079 204.759 69.5081 204.351 69.9582 204.174L70.6334 205.503L69.9582 206.301L68.6079 206.567L68.3828 207.631L67.9327 207.365C67.6326 207.188 67.0324 206.886 67.0324 207.099C67.0324 207.312 66.8824 207.719 66.8073 207.897L66.1321 207.099V205.503L66.5823 204.44V203.908M71.0836 201.248C71.0085 201.869 70.9035 203.11 71.0836 203.11C71.2636 203.11 71.7588 203.11 71.9838 203.11C71.9088 203.376 71.8038 203.908 71.9838 203.908C72.2089 203.908 72.8841 203.908 72.8841 203.642C72.8841 203.429 72.8841 202.844 72.8841 202.578C73.0341 202.667 73.3342 202.791 73.3342 202.578C73.3342 202.365 73.3342 202.312 73.3342 202.312L72.8841 201.78H71.5337V200.716M61.8559 241.936L62.5311 238.745L62.9812 240.607L63.4314 241.67L63.2063 242.468M69.5081 238.479C69.5831 239.277 69.8682 240.873 70.4084 240.873C71.0836 240.873 71.3086 241.67 71.5337 241.67C71.7138 241.67 71.9088 242.202 71.9838 242.468M70.4084 237.947L71.0836 238.745C71.1586 239.1 71.3536 239.862 71.5337 240.075C71.7138 240.287 72.3589 240.341 72.659 240.341L72.8841 239.809H73.7844V240.607L73.3342 242.468M76.4851 242.468C76.035 242.291 75.1798 241.724 75.3598 240.873C75.5399 240.022 75.4348 238.922 75.3598 238.479C75.5849 238.036 76.035 237.096 76.035 236.884C76.035 236.671 76.4851 236.086 76.7102 235.82L77.8355 235.554L78.2857 236.884L78.7358 238.479L77.8355 239.277V242.468M85.4877 231.565C85.3377 231.565 84.9926 231.458 84.8126 231.033C84.5875 230.501 84.3624 231.033 84.1374 231.033C83.9573 231.033 83.4622 231.388 83.2371 231.565C83.5372 232.097 84.1824 233.16 84.3624 233.16C84.5425 233.16 84.7375 233.87 84.8126 234.224L84.3624 235.022L83.9123 236.618C83.5372 236.884 82.742 237.469 82.5619 237.681C82.3368 237.947 82.5619 238.745 82.5619 239.011C82.5619 239.277 81.8867 240.075 81.4366 240.075C81.0765 240.075 81.1365 239.366 81.2115 239.011L80.9864 236.763L80.3112 235.82L81.2115 233.426C81.0615 233.338 80.7164 233.107 80.5363 232.895C80.3563 232.682 80.3112 232.097 80.3112 231.831C80.0112 231.742 79.366 231.458 79.1859 231.033C79.0059 230.607 79.1109 229.792 79.1859 229.437H77.9348L76.9353 229.171L76.7102 228.64C77.0103 227.93 77.588 226.459 77.4981 226.246C77.4081 226.033 77.5355 224.916 77.6105 224.385L77.8355 221.991L77.6105 221.459H78.9609C78.9609 221.814 78.9609 222.629 78.9609 223.055C78.9609 223.587 79.636 223.055 79.8611 223.055C80.0412 223.055 80.3863 222.7 80.5363 222.523L81.2115 221.991H82.5619C82.5619 221.814 82.5619 221.406 82.5619 221.193C82.5619 220.927 82.1118 219.598 82.1118 219.066C82.1118 218.64 83.012 218.179 83.4622 218.002L84.3624 218.268C84.5875 218.445 85.0376 218.853 85.0376 219.066C85.0376 219.279 84.8876 220.218 84.8126 220.662L86.066 219.598L87.5297 218.8C87.2992 218.268 86.7481 217.204 86.388 217.204C85.9379 217.204 85.2627 216.673 85.0376 216.407C84.8576 216.194 85.4127 215.786 85.7128 215.609L88.0616 215.077C87.9908 215.609 87.8493 216.779 87.8493 217.204C87.8493 217.63 88.6756 218.091 89.0888 218.268V217.204L89.764 214.279L89.9891 212.684L90.6642 209.492C91.0394 209.67 91.8346 210.077 92.0146 210.29C92.1947 210.503 92.2397 211.62 92.2397 212.152H93.5901L94.2653 211.886L95.1656 211.088L95.8407 209.492L96.741 207.631L98.0914 209.758L98.7666 208.163L100.342 207.365L101.242 202.578M86.066 229.969L85.4877 229.703L83.6872 229.171L81.8867 229.437C81.8867 229.792 81.9767 230.501 82.3368 230.501C82.6969 230.501 83.2371 230.501 83.4622 230.501L82.5619 231.831L82.1118 232.629C81.8117 232.54 81.2115 232.309 81.2115 232.097C81.2115 231.884 81.2115 231.299 81.2115 231.033L80.5363 229.703L80.4095 229.437L79.636 228.64L79.1859 228.374L78.9609 226.512C79.1109 226.512 79.411 226.459 79.411 226.246C79.411 225.98 79.1859 224.651 79.411 224.651C79.591 224.651 80.3863 224.651 80.7614 224.651C80.9114 224.739 81.2115 224.81 81.2115 224.385C81.2115 223.959 81.5116 223.144 81.6616 222.789C81.8117 223.144 82.1118 223.959 82.1118 224.385C82.1118 224.916 82.3368 225.448 82.3368 225.714C82.3368 225.98 81.6616 227.31 82.3368 227.31C82.877 227.31 83.6122 226.955 83.9123 226.778L83.4622 224.916C83.7622 225.182 84.3624 225.767 84.3624 225.98C84.3624 226.246 84.3624 226.778 84.5875 227.31C84.8126 227.842 85.2627 228.108 85.2627 228.374C85.2627 228.586 85.5628 228.64 85.7128 228.64C85.7878 228.728 85.9829 228.799 86.1629 228.374C86.343 227.948 86.388 227.31 86.388 227.044C86.0879 226.778 85.4877 226.193 85.4877 225.98C85.4877 225.714 85.2627 224.916 85.0376 224.385C84.8126 223.853 85.0376 223.856 84.8126 223.456C84.6325 223.135 84.5875 222.7 84.5875 222.523C84.5875 222.257 84.6325 221.725 84.8126 221.725C85.0376 221.725 85.2627 221.193 85.7128 221.193C86.0729 221.193 86.9132 221.016 87.2883 220.927C87.0632 221.503 86.6581 222.734 86.8381 223.055C87.0182 223.375 87.2132 223.72 87.2883 223.853C87.3537 223.587 87.6 223.055 88.0616 223.055C88.5233 223.055 89.2388 222.7 89.5389 222.523C89.3139 221.903 88.9087 220.608 89.0888 220.396C89.2688 220.183 89.6139 219.421 89.764 219.066C89.689 219.509 89.5839 220.396 89.764 220.396C89.9891 220.396 89.3139 221.725 89.9891 221.725C90.6642 221.725 91.1144 222.257 91.1144 221.725C91.1144 221.3 91.1144 219.598 91.1144 218.8C90.9643 218.623 90.6642 218.215 90.6642 218.002C90.6642 217.789 90.6642 217.382 90.6642 217.204C90.8893 217.204 91.3845 217.204 91.5645 217.204C91.7446 217.204 92.0897 217.027 92.2397 216.938L90.8893 214.811L92.0146 214.279L92.9149 214.811L93.8152 213.747H94.7154L94.9405 214.279L96.5159 213.747L97.6413 216.938V219.066L96.741 220.13C96.666 220.484 96.561 221.247 96.741 221.459C96.9211 221.672 97.5662 221.903 97.8663 221.991L98.3165 222.789L99.4418 221.459L100.792 220.927L101.242 220.13C101.317 219.686 101.422 218.8 101.242 218.8C101.017 218.8 99.6669 218.8 99.8919 218.534C100.072 218.321 100.417 216.495 100.567 215.609L98.7666 216.407L97.6413 214.811C97.5662 214.545 97.3712 213.96 97.1911 213.747C97.0111 213.535 97.1161 212.595 97.1911 212.152L98.0914 211.088C98.6916 210.645 99.8919 209.705 99.8919 209.492C99.8919 209.226 100.117 209.758 100.117 210.29C100.117 210.822 100.117 212.152 100.342 211.886C100.522 211.673 101.017 211.088 101.242 210.822L102.818 210.024L103.268 207.099M157.058 149.391H155.933L154.808 150.987L154.583 153.646C154.531 154.014 154.486 154.637 154.583 154.985M156.158 156.837C155.858 156.305 155.168 155.242 154.808 155.242C154.697 155.242 154.626 155.141 154.583 154.985M154.583 154.985L153.457 155.242L154.049 157.804M154.583 162.954L153.457 162.422V159.497L154.133 158.167L154.049 157.804M152.782 158.167L154.049 157.804M150.757 161.092V165.081L151.207 166.677L151.882 165.879L153.232 165.347L152.782 166.411L152.557 169.336M146.48 165.879H148.056V169.07C148.056 170.045 148.101 171.996 148.281 171.996C148.506 171.996 148.731 171.996 149.406 171.464C149.946 171.038 150.532 169.868 150.757 169.336V171.996M142.879 169.07C143.179 169.336 143.825 169.868 144.005 169.868C144.185 169.868 144.53 169.868 144.68 169.868V171.996L144.005 173.857L145.13 175.187C145.655 175.01 146.705 174.602 146.705 174.389C146.705 174.176 146.856 173.237 146.931 172.793L147.381 176.516M140.854 172.793L140.404 174.921L139.503 175.719C139.428 175.985 139.323 176.623 139.503 177.048C139.683 177.474 140.329 177.758 140.629 177.846L140.854 177.808M142.879 174.921L142.204 177.58L140.854 177.808M140.854 177.808C140.404 178.264 139.503 179.282 139.503 179.708C139.503 180.24 138.603 180.771 138.828 180.771C139.008 180.771 138.903 181.481 138.828 181.835M136.127 173.857L135.227 176.782C134.777 177.314 133.922 178.378 134.102 178.378C134.327 178.378 135.002 179.176 135.002 179.442C135.002 179.708 136.127 180.24 136.127 179.974C136.127 179.761 137.178 178.821 137.703 178.378V177.58M135.452 179.708L134.777 181.037V181.835M134.102 178.644L132.526 179.974L130.951 180.24L130.051 179.442M130.051 179.442V178.112M130.051 179.442L129.601 180.771L128.25 181.569L127.125 182.367M130.051 178.112C130.126 177.758 130.321 177.048 130.501 177.048C130.681 177.048 131.326 176.516 131.626 176.251M130.051 178.112L128.475 177.808M124.199 175.719H124.874L125.662 175.32M126.45 174.921L125.662 175.32M125.662 175.32V177.808M125.662 177.808L124.874 178.112L123.974 179.176M125.662 177.808L127.125 178.91M119.248 175.719L120.148 174.921L121.048 174.655L121.273 172.262M121.273 172.262L120.373 171.996M121.273 172.262L122.398 171.996M121.048 174.921L121.948 176.251M118.122 168.538L119.473 168.804M97.8663 197.259L95.8407 196.196L94.7154 194.068C94.0402 193.536 92.6898 192.366 92.6898 191.941C92.6898 191.515 91.7896 191.232 91.3394 191.143L89.3139 192.207L88.8412 190.345M92.4648 190.345L92.0146 190.079C91.6395 189.902 90.7993 189.547 90.4392 189.547C90.0791 189.547 89.689 188.661 89.5389 188.218L87.7384 187.42L87.6259 187.819M85.0376 191.941C85.3377 191.763 85.9829 191.409 86.1629 191.409C86.343 191.409 86.8381 191.763 87.0632 191.941L87.2883 192.738M88.8412 190.345L88.6387 189.547L87.5133 188.218L87.6259 187.819M88.8412 190.345L88.6387 191.143L88.1885 191.675C87.8134 191.497 87.0632 191.09 87.0632 190.877C87.0632 190.664 86.6131 189.37 86.388 188.749L85.7128 187.952L86.388 187.42L87.6259 187.819M83.2371 179.176L83.4622 181.303L83.9123 182.101V184.495L85.4877 185.026L85.9379 185.824V187.154L84.5875 187.819L84.8126 188.484H83.9123M88.8412 185.026L87.7384 183.431C87.4383 183.165 86.7931 182.58 86.6131 182.367C86.388 182.101 85.4877 182.633 85.4877 181.569C85.4877 180.505 85.2627 179.974 85.4877 179.708C85.7128 179.442 85.4877 178.91 86.388 179.708C87.1082 180.346 86.9882 180.505 86.8381 180.505C86.7631 180.594 86.7481 180.931 87.2883 181.569C87.8284 182.207 88.4136 182.722 88.6387 182.899L88.4136 181.303C88.3386 180.949 88.1885 180.133 88.1885 179.708C88.1885 179.176 88.7512 178.416 88.1885 178.112C87.6259 177.808 86.8381 177.314 86.8381 176.782C86.8381 176.251 86.6131 175.32 86.8381 175.32C87.0182 175.32 87.2132 175.054 87.2883 174.921C87.4383 175.054 87.7834 175.32 87.9635 175.32C88.1885 175.32 88.4136 176.251 88.4136 176.516C88.4136 176.782 88.1885 177.352 88.4136 177.58C88.5936 177.763 88.9387 178.011 89.0888 178.112M90.6642 175.719L89.764 174.921L89.5389 173.325L90.4392 172.527L89.764 170.932L88.8412 170.666H88.1885L87.9635 170.932M87.2883 175.32L87.5133 173.059V171.464L87.9635 170.932M105.293 173.325V171.996L103.718 172.527M101.242 171.73C101.422 171.942 102.068 171.286 102.368 170.932L101.692 170.134L99.8919 171.73M96.741 171.996C97.4612 171.783 98.2414 170.666 98.5415 170.134H97.1911L95.8407 171.996M88.4136 166.677L88.8412 167.741C89.0738 167.386 89.5839 166.677 89.764 166.677C89.944 166.677 90.4392 165.613 90.6642 165.081L91.5645 165.613L92.2397 166.145V167.209L90.2141 168.007L88.4136 169.868L87.9635 170.932M89.3139 165.613L90.6642 164.284H91.5645L92.9149 165.613L93.365 166.411L94.9405 167.475L95.3906 168.273V169.868L94.4904 171.198L94.0402 173.059M84.8126 178.112L85.4877 176.251M85.4877 176.251L84.5875 175.32L83.6872 174.389M85.4877 176.251L86.388 173.857L85.7128 174.389L84.8126 173.591L84.3624 171.996M90.4392 162.688C86.0879 163.042 77.5654 166.783 78.2857 178.91C78.5857 183.431 81.3015 193.536 89.764 197.791M92.4648 162.954L93.365 162.688L93.14 161.358L91.5645 160.029L90.4392 159.763C90.1391 159.674 89.4939 159.444 89.3139 159.231C89.1338 159.018 89.5389 158.256 89.764 157.901L91.5645 157.635L92.4648 158.433L93.365 158.699L94.2653 160.295L95.1656 160.826V162.422L95.3906 164.284M80.0862 145.402L80.1987 145.668M85.9379 152.848V150.987L85.2627 150.189C85.1877 149.834 84.9926 149.125 84.8126 149.125C84.6325 149.125 84.2874 149.303 84.1374 149.391C83.7622 149.48 82.877 149.71 82.3368 149.923C81.6616 150.189 82.1118 150.189 81.4366 150.189C80.8964 150.189 80.9114 149.125 80.9864 148.593L80.5363 146.466L80.1987 145.668M86.9265 156.305C86.9942 157.137 87.0632 158.023 87.0632 158.167C87.0632 158.433 85.9379 158.433 85.2627 158.167C84.5875 157.901 85.2627 157.369 85.0376 157.369C84.8126 157.369 83.9123 156.837 83.6872 156.571C83.5072 156.359 83.3121 155.242 83.2371 154.71L83.4622 153.38L84.1374 152.582L85.7128 152.848V154.178L86.8381 155.242C86.8623 155.527 86.8942 155.91 86.9265 156.305ZM86.9265 156.305C87.2159 155.88 88.0385 154.178 88.4136 153.38C88.4136 152.848 88.4136 151.731 88.4136 151.519C88.4136 151.306 88.1135 150.898 87.9635 150.721C87.859 151.075 87.5777 151.678 87.2883 151.253C86.9265 150.721 87.5133 150.455 86.8381 150.189C86.1629 149.923 85.4877 150.189 85.4877 149.391C85.4877 148.593 85.7128 148.062 85.7128 147.264C85.7128 146.466 85.2627 145.668 85.2627 145.402C85.2627 145.136 83.9123 144.338 83.6872 144.338C83.5072 144.338 82.862 144.87 82.5619 145.136L80.1987 145.668M76.4851 137.69C76.9353 137.158 77.8355 135.988 77.8355 135.563C77.8355 135.137 77.9856 133.612 78.0606 132.903M108.895 132.371L110.695 131.574L110.47 132.371L109.57 134.499M110.245 137.158C110.425 137.158 110.62 136.095 110.695 135.563L111.82 134.765V135.829L112.271 137.69L112.721 138.222L112.946 141.413H112.271L111.595 141.679M113.171 134.765L113.213 135.031M113.213 135.031L114.521 143.275L116.997 145.934L116.547 139.818L113.213 135.031ZM114.746 132.637C116.097 134.499 117.897 137.956 117.897 137.69C117.897 137.477 119.848 134.588 120.823 133.169L114.521 132.637M113.396 144.073C113.321 144.693 113.216 145.934 113.396 145.934C113.576 145.934 114.821 145.934 115.421 145.934L113.396 143.807M112.946 147.53L116.997 148.327L114.296 152.051M114.521 153.646L116.097 153.114L118.797 159.231M121.723 160.826L121.498 158.167L123.524 161.358M120.373 150.721L120.598 153.646L121.273 155.508L121.948 156.837L122.624 158.167L123.524 159.763L124.424 160.295L124.649 159.763L123.749 158.167L122.924 156.305L121.948 154.444L121.273 152.848L120.373 150.455M128.025 162.422C128.385 162.209 129.526 160.383 130.051 159.497L131.851 162.422L128.025 162.551M135.002 155.242L135.227 156.04L135.677 155.508V154.444L136.578 153.912L136.184 152.316L135.452 152.582V153.912L134.777 155.242M136.127 163.486C136.307 163.273 138.153 161.092 139.053 160.029V163.752M140.629 163.486C140.629 163.273 143.33 159.142 144.68 157.103L146.931 159.763L143.78 163.22M151.207 136.626L152.107 140.349L154.049 147.264L155.708 144.073M150.982 136.626L153.908 141.679H154.358V137.69M43.1755 243C23.9699 233.072 -8.76959 199.759 13.917 145.934M13.917 146.998C24.7951 129.535 55.5091 101.736 91.3394 130.244M98.5415 126.521C81.2115 111.806 39.6194 93.7578 11.8914 139.286C0.863202 162.865 -11.3803 216.46 27.871 242.202M185.642 176.251V177.048V177.846H186.767V176.251H185.642ZM92.9149 238.745L94.2653 241.404L94.9405 241.67L95.1656 240.607L94.4904 239.543L92.9149 238.745ZM57.8047 240.607L58.4799 236.352L59.6052 231.565L60.0554 227.31L60.5055 223.055L61.1807 222.523L61.8559 216.673H62.5311L62.9812 218.268L62.7562 221.725L62.5311 223.853H61.6308C61.3307 224.651 60.7756 226.353 60.9556 226.778C61.1357 227.204 60.7306 229.26 60.5055 230.235L60.0554 233.16L59.6052 235.554L59.1551 237.947L57.8047 240.607ZM63.4314 240.075L63.2063 238.479L64.5567 237.681L64.7817 236.352L65.0068 233.958L65.9071 233.692L66.1321 234.49V236.352L66.8073 235.554C67.1074 235.199 67.7526 234.437 67.9327 234.224C68.1577 233.958 67.9327 232.363 67.9327 232.097C67.9327 231.831 67.7076 230.767 67.9327 230.235C68.1127 229.81 68.4578 229.171 68.6079 228.905C68.6079 228.817 68.6979 228.852 69.058 229.703C69.5081 230.767 69.9582 231.033 69.9582 231.831C69.9582 232.629 69.9582 233.958 69.9582 234.224C69.9582 234.49 70.1833 236.352 70.1833 236.618C70.1833 236.884 70.8585 237.947 69.9582 238.213C69.058 238.479 69.7332 238.479 68.6079 238.479C67.7076 238.479 67.3325 238.125 67.2575 237.947C66.9574 237.859 66.3572 237.788 66.3572 238.213C66.3572 238.745 65.9071 238.745 65.9071 239.809C65.9071 240.873 66.1321 241.936 65.9071 241.936C65.727 241.936 64.9318 242.114 64.5567 242.202L64.3316 240.341L63.4314 240.075ZM72.659 228.374L72.434 230.501C72.2839 230.944 72.0739 231.884 72.434 232.097C72.7941 232.309 73.3342 233.249 73.5593 233.692L74.4595 232.629C74.7596 232.363 75.3598 231.724 75.3598 231.299C75.3598 230.873 75.3598 229.349 75.3598 228.64L74.4595 227.31L73.3342 228.374H72.659ZM102.593 215.077V216.673L101.467 217.204C101.542 217.648 101.692 218.587 101.692 218.8C101.692 219.066 101.467 219.332 102.143 219.332C102.683 219.332 103.268 219.332 103.493 219.332C103.343 219.066 103.088 218.534 103.268 218.534C103.448 218.534 103.793 218.534 103.943 218.534L104.393 217.736L104.168 215.609C104.318 215.254 104.573 214.545 104.393 214.545C104.213 214.545 103.118 214.545 102.593 214.545V215.077ZM92.2397 219.598C92.0897 219.066 91.8346 218.002 92.0146 218.002C92.1947 218.002 92.9899 217.825 93.365 217.736V218.8C93.29 219.421 93.185 220.608 93.365 220.396C93.5901 220.13 93.8152 219.864 93.8152 219.598C93.8152 219.332 93.8152 219.864 94.0402 219.332C94.2653 218.8 94.7154 218.8 94.4904 218.534C94.2653 218.268 93.5901 217.47 93.8152 217.204C93.9952 216.992 94.4904 216.938 94.7154 216.938L94.9405 218.268V219.864L94.7154 220.927L93.8152 221.193H92.9149L92.2397 219.598ZM94.0402 223.456C94.1152 222.879 94.5354 221.832 95.6157 222.257C96.5159 222.789 97.9113 224.278 96.2909 225.98C95.3086 226.015 93.4832 225.558 94.0402 223.456ZM90.8893 173.591V169.602C91.1144 169.336 91.5645 168.751 91.5645 168.538C91.5645 168.326 93.0649 168.273 93.8152 168.273L94.2653 168.007L94.7154 169.07L92.6898 171.996L90.8893 173.591ZM80.7614 196.196C76.8602 192.738 70.2733 182.793 75.1347 170.666C75.8099 168.716 77.8805 164.603 80.7614 163.752H81.6616V165.081L79.636 166.411L78.2857 168.538L76.4851 170.932L75.5849 176.516C75.5849 178.467 75.5849 182.58 75.5849 183.431C75.5849 184.282 76.4851 187.331 76.9353 188.749C78.0606 190.256 80.3112 193.43 80.3112 194.068C80.3112 194.706 80.6113 195.752 80.7614 196.196ZM120.598 138.754L122.624 136.892L123.299 137.956L120.823 139.818L120.598 138.754ZM119.248 138.754L118.122 140.084L118.572 144.338C118.497 144.604 118.437 145.136 118.797 145.136C119.248 145.136 119.923 144.604 120.148 144.338C120.328 144.126 121.723 142.832 122.398 142.211L121.723 141.679L120.373 142.211L119.473 142.477L119.248 138.754ZM127.35 150.455L126.45 162.156L129.601 157.635V156.571L128.025 158.167L128.475 152.848H129.601L127.35 150.455ZM130.726 151.785V154.71C130.876 154.799 131.176 154.923 131.176 154.71C131.176 154.497 131.326 152.848 131.401 152.051H132.076L131.851 160.826L132.526 162.156L132.751 161.89L133.202 152.316H133.877L134.552 153.114L133.877 153.646V154.71L135.227 154.444L135.002 150.987H131.851H130.726V151.785ZM118.347 149.657L117.447 151.785L118.122 154.178L118.572 154.444L118.692 152.316H119.022L119.248 157.103L120.373 158.167V154.976L119.923 154.444L120.148 152.582L119.698 152.316V150.455L118.797 149.923L118.347 149.657ZM124.649 151.253V153.114L124.874 153.38L125.099 154.976L125.549 155.774C125.474 155.862 125.369 156.093 125.549 156.305C125.729 156.518 125.924 155.685 125.999 155.242V152.582V150.987L124.649 151.253ZM121.048 149.657L121.808 151.785L123.074 154.444L123.974 156.04L124.649 156.837L124.424 154.976L123.974 152.848L123.074 151.785L121.048 149.657ZM121.498 147.53L124.199 150.189L125.999 149.391L127.575 149.125V148.062L125.774 147.796L123.074 145.934L121.498 147.53ZM123.974 143.807L127.125 140.084L129.375 146.2L123.974 143.807ZM129.601 149.125L130.726 147.264L132.301 149.657L129.601 149.125ZM133.877 149.125C134.338 149.125 135.72 148.771 136.352 148.593C137.028 148.15 138.378 147.317 138.378 147.53C138.378 147.742 139.278 149.391 139.728 150.189L138.505 150.987L136.578 151.253L133.877 149.125ZM135.452 157.635C135.812 157.422 136.653 155.419 137.028 154.444V152.848H139.278L138.378 154.71L137.028 156.837L135.452 158.699V157.635ZM135.227 161.092L135.677 162.156L138.153 158.965L139.728 156.571L140.179 154.444L140.404 153.38L135.227 161.092ZM140.179 157.635V160.826L140.629 160.029L141.079 159.231V155.774L140.629 155.508L140.179 157.635ZM141.529 153.38V155.508H141.754L141.979 157.103H142.429L142.574 154.444L142.204 154.178V152.848L141.529 153.38ZM144.68 151.519V154.178L148.056 157.901L147.831 153.912L144.68 151.519ZM145.805 149.923L147.381 150.721V148.593L145.805 149.923ZM149.406 149.657L149.856 157.103L153.457 151.519L149.406 149.657ZM150.081 139.552L148.956 146.2L152.782 147.264L150.081 139.552ZM148.506 138.754L145.355 143.009L144.905 145.934L144.005 148.062L146.48 146.998L146.705 145.136L147.381 143.541L148.506 138.754ZM140.404 138.488L139.954 140.084L140.404 141.147L141.304 142.477L141.529 143.009L142.204 141.945V141.147L141.979 139.286L141.304 138.488H140.404ZM139.954 143.541L140.404 143.807L141.079 144.338L141.979 145.402L142.429 144.87L142.879 142.211L143.33 141.945L143.555 143.541L143.33 145.402L142.574 147.53L141.529 146.998L140.629 145.136L139.954 143.541ZM142.429 135.031C142.429 135.456 143.93 138.931 144.68 140.615L147.831 135.563L142.429 135.031ZM132.301 146.2L135.677 141.147L137.703 145.136L132.301 146.2ZM132.076 133.435L128.25 138.754L130.726 145.136L134.552 138.754L132.076 133.435ZM134.777 132.903L137.478 139.552L136.578 134.765L140.404 135.031L134.777 132.903ZM136.352 131.84L144.23 126.787L149.631 133.435L136.352 131.84ZM132.301 119.341L128.475 125.457L132.526 131.042L135.677 124.925L132.301 119.341ZM134.552 119.341L136.803 122.798L139.053 119.075L134.552 119.341ZM139.954 121.202L135.002 130.776L142.429 126.787V125.457L137.478 128.116L139.954 122.532V121.202ZM141.529 123.064L140.404 124.925H141.304L142.429 124.127V123.064H141.529ZM122.624 133.169L123.524 133.967L127.575 134.233L125.324 137.956V139.286L130.051 133.169H122.624ZM124.874 118.277L126.9 122.532L130.276 118.809L124.874 118.277ZM123.524 120.67L123.974 119.075L129.601 131.042L120.148 124.659H121.498L127.125 128.116L123.524 120.67ZM121.948 121.734V123.596L123.074 124.393H123.299L123.074 123.596L121.948 121.734ZM112.721 130.244L119.473 125.457L127.575 131.574L112.721 130.244Z" stroke="black"/>
</svg>
